<svg xmlns="http://www.w3.org/2000/svg" viewBox="0 0 48 48" fill="none">
  <!-- Sun -->
  <circle cx="24" cy="18" r="8" fill="#F59E0B" opacity="0.9"/>
  <circle cx="24" cy="18" r="5" fill="#FBBF24"/>
  <!-- Ocean waves -->
  <path d="M4 28 Q10 24, 16 28 T28 28 T40 28 T52 28" stroke="#0EA5E9" stroke-width="2.5" fill="none" stroke-linecap="round"/>
  <path d="M2 34 Q8 30, 14 34 T26 34 T38 34 T50 34" stroke="#0EA5E9" stroke-width="2" fill="none" stroke-linecap="round" opacity="0.7"/>
  <path d="M6 40 Q12 36, 18 40 T30 40 T42 40" stroke="#0EA5E9" stroke-width="1.5" fill="none" stroke-linecap="round" opacity="0.4"/>
  <!-- Palm tree -->
  <path d="M36 28 L36 18" stroke="#065F46" stroke-width="2" stroke-linecap="round"/>
  <path d="M36 18 Q32 14, 28 16" stroke="#065F46" stroke-width="1.5" fill="none" stroke-linecap="round"/>
  <path d="M36 18 Q34 12, 30 12" stroke="#065F46" stroke-width="1.5" fill="none" stroke-linecap="round"/>
  <path d="M36 18 Q38 12, 42 13" stroke="#065F46" stroke-width="1.5" fill="none" stroke-linecap="round"/>
  <path d="M36 18 Q40 14, 44 16" stroke="#065F46" stroke-width="1.5" fill="none" stroke-linecap="round"/>
</svg>
